<svg width="30" height="30" viewBox="0 0 30 30" fill="none" xmlns="http://www.w3.org/2000/svg">
<g clip-path="url(#clip0_81_12)">
<path d="M17.4634 12.4782L17.4588 3.48512C17.4189 2.86169 17.1432 2.27683 16.6876 1.84942C16.232 1.42201 15.6307 1.18413 15.006 1.18413C14.3813 1.18413 13.78 1.42201 13.3244 1.84942C12.8688 2.27683 12.5931 2.86169 12.5532 3.48512L12.5486 12.4782L3.53351 12.477C3.21065 12.477 2.89095 12.5406 2.59266 12.6642C2.29438 12.7877 2.02335 12.9688 1.79505 13.1971C1.56675 13.4254 1.38566 13.6965 1.2621 13.9948C1.13855 14.293 1.07495 14.6127 1.07495 14.9356C1.07495 15.2585 1.13855 15.5782 1.2621 15.8764C1.38566 16.1747 1.56675 16.4458 1.79505 16.6741C2.02335 16.9024 2.29438 17.0835 2.59266 17.207C2.89095 17.3306 3.21065 17.3942 3.53351 17.3942L12.5486 17.393L12.5521 26.3849C12.5334 26.7187 12.583 27.0529 12.6979 27.3668C12.8127 27.6808 12.9905 27.9681 13.2202 28.211C13.4499 28.4539 13.7267 28.6474 14.0338 28.7797C14.3409 28.9119 14.6717 28.9802 15.006 28.9802C15.3403 28.9802 15.6712 28.9119 15.9782 28.7797C16.2853 28.6474 16.5621 28.4539 16.7919 28.211C17.0216 27.9681 17.1993 27.6808 17.3142 27.3668C17.429 27.0529 17.4786 26.7187 17.4599 26.3849L17.4634 17.393L26.4507 17.3942C27.1028 17.3942 27.7281 17.1351 28.1892 16.6741C28.6502 16.213 28.9093 15.5876 28.9093 14.9356C28.9093 14.2835 28.6502 13.6582 28.1892 13.1971C27.7281 12.7361 27.1028 12.477 26.4507 12.477L17.4634 12.4782Z" fill="white"/>
</g>
<defs>
<clipPath id="clip0_81_12">
<rect width="30" height="30" fill="white"/>
</clipPath>
</defs>
</svg>
